<?xml version="1.0" standalone="no"?><!DOCTYPE svg PUBLIC "-//W3C//DTD SVG 1.1//EN" "http://www.w3.org/Graphics/SVG/1.1/DTD/svg11.dtd"><svg t="1582964774037" class="icon" viewBox="0 0 1024 1024" version="1.1" xmlns="http://www.w3.org/2000/svg" p-id="2294" xmlns:xlink="http://www.w3.org/1999/xlink" width="200" height="200"><defs><style type="text/css"></style></defs><path d="M990.792 937H66.424V776.104l179.88-250.872 143.96 162.6c6.744 7.616 16.528 11.576 26.792 11.128a33.216 33.216 0 0 0 25.312-14.144l109.008-156.408 144.64 93.288a33.136 33.136 0 0 0 45.568-9.376l271.224-404.064a33.2 33.2 0 1 0-55.136-37.008L704.608 548.216l-144.16-92.992a33.224 33.224 0 0 0-45.24 8.92l-103.2 148.048-143.584-162.176a33.04 33.04 0 0 0-26.56-11.144 33.176 33.176 0 0 0-25.28 13.816L66.424 662.112V45.84A33.216 33.216 0 0 0 0 45.84v924.368a33.2 33.2 0 0 0 33.208 33.208h957.576a33.184 33.184 0 0 0 33.208-33.208 33.168 33.168 0 0 0-33.2-33.208z" fill="#CACACA" p-id="2295"></path></svg>