<?xml version="1.0" standalone="no"?><!DOCTYPE svg PUBLIC "-//W3C//DTD SVG 1.1//EN" "http://www.w3.org/Graphics/SVG/1.1/DTD/svg11.dtd"><svg t="1582965377070" class="icon" viewBox="0 0 1418 1024" version="1.1" xmlns="http://www.w3.org/2000/svg" p-id="4256" xmlns:xlink="http://www.w3.org/1999/xlink" width="276.953125" height="200"><defs><style type="text/css"></style></defs><path d="M1183.516614 635.417257A324.877438 324.877438 0 0 0 996.801698 100.200414 54.580713 54.580713 0 0 0 977.576252 207.569637a216.204795 216.204795 0 0 1 65.985639 402.105074 54.580713 54.580713 0 0 0 26.231327 102.318472 58.328046 58.328046 0 0 0 14.174693-1.955131 384.834759 384.834759 0 0 1 228.098502 230.053633 54.743641 54.743641 0 0 0 51.322163 36.169905 54.743641 54.743641 0 0 0 51.322163-72.99152A496.114243 496.114243 0 0 0 1183.516614 635.417257z" fill="#CACACA" p-id="4257"></path><path d="M385.497711 708.24585a373.755689 373.755689 0 0 0 344.428739 0A466.787292 466.787292 0 0 1 1010.161753 987.829443a54.417786 54.417786 0 0 0 51.322163 36.169905 54.906568 54.906568 0 0 0 48.87825-31.28208 54.580713 54.580713 0 0 0 2.118058-41.70944 576.926284 576.926284 0 0 0-282.516288-318.197411 374.733254 374.733254 0 1 0-544.503711 0A576.926284 576.926284 0 0 0 3.269792 951.007828a54.417786 54.417786 0 0 0 32.5855 69.73297 55.558278 55.558278 0 0 0 18.410808 3.25855 54.580713 54.580713 0 0 0 51.648018-36.169905 466.29851 466.29851 0 0 1 279.583593-279.583593z m172.214369-66.963203A266.223538 266.223538 0 1 1 823.772691 374.733254a266.386465 266.386465 0 0 1-266.060611 266.549393z" fill="#CACACA" p-id="4258"></path></svg>